2.8Hzlow_3min_grf.mot
version=1
nRows=30
nColumns 19
inDegrees=yes
endheader
time	1_ground_force_vx	1_ground_force_vy	1_ground_force_vz	1_ground_force_px	1_ground_force_py	1_ground_force_pz	1_ground_torque_x	1_ground_torque_y	1_ground_torque_z	2_ground_force_vx	2_ground_force_vy	2_ground_force_vz	2_ground_force_px	2_ground_force_py	2_ground_force_pz	2_ground_torque_x	2_ground_torque_y	2_ground_torque_z
            1.253500	            0.377406	          124.765356	           -4.464428	           -0.180930	            0.006406	           -0.445746	            0.000086	            0.028364	           -0.001015	            1.032349	          126.956255	          -19.914720	           -0.151919	            0.005996	           -0.714902	            0.017925	            2.204395	           -0.345788
            1.254000	            0.652373	          121.521807	           -4.754160	           -0.180039	            0.006408	           -0.446297	            0.000283	            0.052748	           -0.002064	            1.320156	          125.115284	          -19.780626	           -0.151825	            0.005998	           -0.715218	            0.022813	            2.162050	           -0.341818
            1.254500	            0.516006	          118.276015	           -4.538452	           -0.179734	            0.006409	           -0.446538	            0.000243	            0.055803	           -0.002141	            1.381504	          121.065194	          -20.076670	           -0.151410	            0.005996	           -0.714193	            0.024016	            2.104608	           -0.349015
            1.255000	            0.882788	          115.572887	           -4.734381	           -0.179626	            0.006407	           -0.445882	            0.000666	            0.087234	           -0.003574	            1.062113	          118.670744	          -20.272785	           -0.150638	            0.005997	           -0.713872	            0.019835	            2.216233	           -0.378604
            1.255500	            0.837699	          112.688234	           -4.654922	           -0.179799	            0.006404	           -0.445236	            0.000004	            0.000559	           -0.000023	            1.304338	          116.461810	          -20.280769	           -0.150554	            0.006003	           -0.715272	            0.024303	            2.169951	           -0.377877
            1.256000	            0.839382	          109.081151	           -4.257678	           -0.178734	            0.006409	           -0.446372	           -0.000354	           -0.046039	            0.001797	            1.408774	          113.514938	          -20.056681	           -0.150681	            0.005997	           -0.713826	            0.027148	            2.187490	           -0.386502
            1.256500	            0.976883	          106.738510	           -4.451492	           -0.179065	            0.006407	           -0.445895	           -0.000516	           -0.056375	            0.002351	            1.371832	          110.753054	          -20.207302	           -0.149915	            0.005998	           -0.713383	            0.026935	            2.174546	           -0.396754
            1.257000	            1.022827	          104.936256	           -4.551047	           -0.179520	            0.006395	           -0.443121	           -0.000158	           -0.016261	            0.000705	            1.426596	          108.543945	          -20.355991	           -0.150170	            0.005995	           -0.712832	            0.027664	            2.104875	           -0.394742
            1.257500	            1.206678	          101.691706	           -4.611271	           -0.178975	            0.006399	           -0.444145	            0.000827	            0.069707	           -0.003161	            1.717041	          105.966549	          -20.271453	           -0.149302	            0.005999	           -0.712841	            0.034464	            2.126937	           -0.406884
            1.258000	            1.482768	           97.905590	           -4.490619	           -0.177308	            0.006407	           -0.445827	            0.001591	            0.105044	           -0.004818	            1.588516	          102.650870	          -20.142436	           -0.148571	            0.005998	           -0.712067	            0.032664	            2.110773	           -0.414182
            1.258500	            1.300085	           95.381442	           -4.409273	           -0.177900	            0.006403	           -0.444934	            0.000670	            0.049178	           -0.002273	            1.601706	           98.968740	          -20.390217	           -0.146199	            0.006002	           -0.710580	            0.032694	            2.020120	           -0.416199
            1.259000	            1.300530	           92.317122	           -4.468269	           -0.177293	            0.006401	           -0.444550	            0.000217	            0.015429	           -0.000747	            1.658545	           96.206509	          -20.353165	           -0.145504	            0.006002	           -0.709945	            0.035342	            2.050060	           -0.433705
            1.259500	            1.483890	           90.515090	           -4.614022	           -0.178378	            0.006398	           -0.443823	            0.000009	            0.000536	           -0.000027	            1.758912	           94.365197	          -20.312848	           -0.146257	            0.006004	           -0.711296	            0.037181	            1.994745	           -0.429385
            1.260000	            1.531155	           87.088675	           -4.307831	           -0.177935	            0.006403	           -0.445057	           -0.000505	           -0.028751	            0.001422	            1.717859	           92.709207	          -20.741094	           -0.144542	            0.006007	           -0.710326	            0.036915	            1.992249	           -0.445710
            1.260500	            1.622925	           86.007296	           -4.358552	           -0.177837	            0.006386	           -0.440919	           -0.000573	           -0.030377	            0.001539	            1.543875	           89.024559	          -20.472587	           -0.144589	            0.006000	           -0.708412	            0.034515	            1.990251	           -0.457689
            1.261000	            1.348525	           82.401929	           -4.373328	           -0.178939	            0.006397	           -0.443565	            0.000324	            0.019796	           -0.001051	            2.017567	           87.554069	          -20.759611	           -0.144155	            0.006000	           -0.707905	            0.044793	            1.943851	           -0.460899
            1.261500	            1.670036	           78.436343	           -4.436986	           -0.176449	            0.006406	           -0.445687	            0.001479	            0.069450	           -0.003929	            1.840055	           84.791829	          -20.957100	           -0.142343	            0.006005	           -0.707622	            0.040871	            1.883400	           -0.465500
            1.262000	            1.945243	           76.994467	           -4.489708	           -0.176876	            0.006392	           -0.442427	            0.003370	            0.133402	           -0.007779	            1.899074	           81.475655	          -20.499666	           -0.141346	            0.006004	           -0.706373	            0.043979	            1.886820	           -0.474733
            1.262500	            1.946276	           73.208298	           -4.368373	           -0.176597	            0.006403	           -0.444882	            0.001143	            0.042997	           -0.002566	            1.667380	           80.739052	          -20.736835	           -0.141123	            0.006011	           -0.708048	            0.040285	            1.950699	           -0.501013
            1.263000	            1.854949	           72.486824	           -4.279525	           -0.177410	            0.006382	           -0.439995	           -0.000059	           -0.002318	            0.000137	            1.774351	           77.056592	          -20.796944	           -0.139341	            0.006005	           -0.704438	            0.043514	            1.889724	           -0.510021
            1.263500	            1.763418	           68.521945	           -4.525582	           -0.176453	            0.006404	           -0.445094	           -0.000712	           -0.027685	            0.001828	            1.780312	           75.399432	          -20.849786	           -0.140282	            0.006003	           -0.705084	            0.043678	            1.849850	           -0.511529
            1.264000	            1.855789	           67.259317	           -4.347797	           -0.174992	            0.006391	           -0.442107	            0.000430	            0.015583	           -0.001007	            1.836446	           72.821692	          -20.905933	           -0.137081	            0.006008	           -0.703101	            0.044576	            1.767592	           -0.507447
            1.264500	            1.763995	           64.736562	           -4.587670	           -0.175684	            0.006393	           -0.442587	            0.000211	            0.007732	           -0.000548	            1.748105	           71.347832	          -20.817293	           -0.139322	            0.006002	           -0.703828	            0.044326	            1.809156	           -0.527861
            1.265000	            1.994842	           62.030656	           -4.141275	           -0.175279	            0.006396	           -0.443108	            0.004541	            0.141208	           -0.009427	            1.661572	           69.323026	          -21.152978	           -0.137846	            0.006004	           -0.702777	            0.042118	            1.757229	           -0.536194
            1.265500	            2.223215	           60.410275	           -4.607359	           -0.175438	            0.006381	           -0.439788	            0.003854	            0.104710	           -0.007986	            1.903317	           67.296742	          -20.737952	           -0.136762	            0.006005	           -0.702089	            0.048739	            1.723307	           -0.531049
            1.266000	            1.994997	           58.065794	           -4.387559	           -0.176598	            0.006385	           -0.440646	            0.001256	            0.036569	           -0.002763	            1.769187	           65.456592	          -21.260672	           -0.135374	            0.006014	           -0.703013	            0.046525	            1.721333	           -0.559099
            1.266500	            2.041351	           54.640951	           -4.448215	           -0.173091	            0.006397	           -0.443424	           -0.000887	           -0.023744	            0.001933	            1.494111	           63.797900	          -21.172610	           -0.136095	            0.006009	           -0.702355	            0.040836	            1.743701	           -0.578682
            1.267000	            1.904265	           52.838072	           -4.409748	           -0.174649	            0.006401	           -0.444453	            0.000309	            0.008562	           -0.000715	            1.455839	           61.404304	          -21.321916	           -0.133013	            0.006013	           -0.700322	            0.039287	            1.657061	           -0.575395
            1.267500	            2.134231	           51.214938	           -4.233850	           -0.172901	            0.006384	           -0.440378	            0.001541	            0.036989	           -0.003058	            1.463232	           59.378003	          -21.141431	           -0.131303	            0.006020	           -0.700518	            0.039469	            1.601658	           -0.570268
            1.268000	            2.180568	           48.510962	           -4.245558	           -0.173243	            0.006398	           -0.443673	            0.004515	            0.100455	           -0.008792	            1.656614	           57.721345	          -21.147424	           -0.131237	            0.006016	           -0.699525	            0.045159	            1.573483	           -0.576479
